<svg viewBox="0 0 500 500" xmlns="http://www.w3.org/2000/svg">
  <path opacity="0.4" d="M 186.521 413.327 C 163.602 413.327 142.006 409.36 121.72 401.424 C 102.333 392.615 85.576 380.713 71.466 365.718 C 56.478 351.619 45.016 334.428 37.08 314.14 C 29.145 294.752 25.178 273.593 25.178 250.661 C 25.178 227.741 29.145 206.583 37.08 187.182 C 45.016 166.906 56.478 149.28 71.466 134.284 C 85.576 120.185 102.769 108.719 123.041 99.897 C 143.327 91.092 165.36 86.673 189.166 86.673 C 204.162 86.673 217.824 87.995 230.162 90.64 C 241.63 93.285 252.208 96.379 261.901 99.897 C 267.953 102.425 273.572 105.237 278.757 108.333 L 250.517 171.332 C 244.278 167.275 237.935 163.742 231.487 160.731 C 219.146 154.57 205.035 151.475 189.166 151.475 C 175.941 151.475 163.602 153.682 152.136 158.086 C 140.684 163.378 130.976 170.44 123.041 179.248 C 115.105 188.953 108.942 199.534 104.528 210.987 C 100.122 223.338 97.913 236.115 97.913 249.338 L 97.913 250.661 C 97.913 263.885 100.122 276.674 104.528 289.013 C 108.942 300.48 115.105 310.623 123.041 319.43 C 130.976 329.138 140.684 336.623 152.136 341.913 C 162.716 347.203 175.068 349.847 189.166 349.847 C 206.807 349.847 221.791 346.33 234.13 339.268 C 235.195 338.736 236.352 338.1 237.577 337.38 L 296.466 337.38 L 316.125 356.46 C 307.314 365.281 298.932 373.216 290.997 380.265 C 282.188 387.325 272.483 393.489 261.901 398.778 C 251.322 403.197 239.868 406.714 227.519 409.36 C 215.179 412.003 201.517 413.327 186.521 413.327 Z"/>
  <path d="M 474.823 406.714 L 436.471 406.714 L 399.443 324.72 L 195.778 324.72 L 298.932 94.608 L 331.994 94.608 L 474.823 406.714 Z M 314.802 135.604 L 242.064 294.304 L 384.893 294.304 L 314.802 135.604 Z" style=""/>
</svg>