<svg xmlns="http://www.w3.org/2000/svg" viewBox="0 0 200 64">
  <path opacity="0.4" d="m169.9 23.3h8v-2.4h-18.7v2.4h8v21h2.7z"/>
  <path opacity="0.4" d="m156.3 44.3l-6.8-9.1h-6.8v9.1h-2.7v-23.4h10.2c5.2 0 8.6 2.8 8.6 7 0 3.9-2.7 6.2-6.5 6.8l7.3 9.6zm-6.3-21h-7.3v9.5h7.3c3.5 0 6.1-1.8 6.1-4.8 0-2.9-2.3-4.7-6.1-4.7z"/>
  <path opacity="0.4" d="m138.7 44.3h-2.9l-2.8-6.2h-12.9-2.5l7.8-17.4h2.5zm-12.1-20.5l-5.5 12h10.8z"/>
  <path d="m95.8 44.4h22l1.8-4.7h-18.6v-5h12.7l2.1-4.7h-14.8v-4.8h17.1l2-4.6-24.3-0.1z"/>
  <path d="m71 20.5h9.2q2.8 0 5.2 0.9 2.3 0.9 4 2.5 1.6 1.6 2.6 3.8 0.9 2.2 0.9 4.7v0.1q0 2.5-0.9 4.7-1 2.2-2.6 3.8-1.7 1.6-4 2.5-2.4 0.9-5.2 0.9h-9.2zm9.2 19.1q1.6 0 3-0.5 1.3-0.5 2.2-1.4 1-1 1.5-2.3 0.5-1.3 0.5-2.9v-0.1q0-1.5-0.5-2.9-0.5-1.3-1.5-2.2-0.9-1-2.2-1.5-1.4-0.6-3-0.6h-4v14.4z"/>
  <path d="m55.3 44.8q-2.7 0-5-1-2.3-0.9-4-2.6-1.7-1.6-2.6-3.9-1-2.2-1-4.8 0-2.6 1-4.8 0.9-2.3 2.6-4 1.7-1.6 4-2.6 2.3-1 5.1-1 2.8 0 5.1 1 2.3 1 4 2.6 1.6 1.7 2.6 3.9 0.9 2.2 0.9 4.8v0.1q0 2.5-0.9 4.8-1 2.2-2.7 3.9-1.7 1.7-4 2.6-2.3 1-5.1 1zm0.1-4.8q1.6 0 2.9-0.6 1.3-0.6 2.2-1.6 1-1 1.5-2.4 0.5-1.3 0.5-2.9 0-1.6-0.5-2.9-0.5-1.4-1.5-2.4-1-1.1-2.3-1.6-1.3-0.6-2.9-0.6-1.6 0-2.9 0.5-1.3 0.6-2.2 1.6-1 1.1-1.5 2.4-0.5 1.4-0.5 2.9v0.1q0 1.5 0.5 2.9 0.5 1.3 1.5 2.3 1 1.1 2.3 1.7 1.3 0.6 2.9 0.6z"/>
  <path d="m36 44.5q1.4-0.3 2.6-0.8 1.2-0.6 2.2-1.4 0.9-0.8 1.9-1.8l-3.4-3.3q-1.4 1.3-2.8 2-1.4 0.8-3.4 0.8-1.6 0-2.8-0.6-1.3-0.6-2.2-1.7-0.9-1-1.4-2.3-0.5-1.4-0.5-2.9v-0.1q0-1.5 0.5-2.9 0.5-1.3 1.4-2.4 0.9-1 2.2-1.6 1.3-0.5 2.8-0.5 1.8 0 3.2 0.7 1.5 0.7 2.9 1.9l3.3-3.8q-0.8-0.8-1.8-1.5-0.9-0.7-2.1-1.2-1.1-0.4-2.4-0.7-1.4-0.3-3.1-0.3-2.7 0-5 1-2.3 1-3.9 2.6-1.7 1.7-2.6 4-0.9 2.2-0.9 4.8 0 2.6 0.9 4.8 0.9 2.3 2.6 3.9 1.6 1.7 3.8 2.7 2.3 0.9 4.9 0.9 1.7 0 3.1-0.3z"/>
</svg>
